Coordinates
version=1
nRows=13
nColumns=36
inDegrees=yes

Units are S.I. units (second, meters, Newtons, ...)
If the header above contains a line with 'inDegrees', this indicates whether rotational values are in degrees (yes) or radians (no).

endheader
time	pelvis_tilt	pelvis_list	pelvis_rotation	pelvis_tx	pelvis_ty	pelvis_tz	hip_flexion_r	hip_adduction_r	hip_rotation_r	knee_angle_r	knee_angle_r_beta	ankle_angle_r	subtalar_angle_r	mtp_angle_r	hip_flexion_l	hip_adduction_l	hip_rotation_l	knee_angle_l	knee_angle_l_beta	ankle_angle_l	subtalar_angle_l	mtp_angle_l	lumbar_extension	lumbar_bending	lumbar_rotation	arm_flex_r	arm_add_r	arm_rot_r	elbow_flex_r	pro_sup_r	arm_flex_l	arm_add_l	arm_rot_l	elbow_flex_l	pro_sup_l
      5.93333330	    -26.49756209	      1.79372431	     -4.53706566	      0.50794961	      0.76226141	      0.00130597	     74.67765816	     -7.65609453	     -2.05926824	     71.31713762	      1.24471886	     26.80749647	     -5.06742251	     -7.49999987	     74.55139265	    -10.54618097	     -0.72554504	     71.63008321	      1.25018080	     27.47552571	     -8.08827074	     -7.49999987	    -18.55995408	     -2.00475509	     10.27207673	     71.62078131	     -7.01920509	     74.14233108	    122.44866221	     83.44517735	     64.66095175	      7.90926140	     62.91464888	    117.33485650	    101.29670843
      5.95000000	    -25.84779469	      1.71620697	     -4.59324077	      0.51587343	      0.76981668	     -0.00021998	     72.32683646	     -7.58481704	     -2.42842168	     68.97054100	      1.20376303	     26.17441908	     -4.89878936	     -7.49999987	     72.18522861	    -10.37223589	     -0.86889909	     69.24003236	      1.20846654	     26.77811820	     -7.96082480	     -7.49999987	    -18.14780636	     -2.02736948	     10.26428218	     70.87999425	     -7.05230224	     74.29061400	    122.99174879	     84.24536075	     64.27648940	      8.15921043	     63.17249428	    117.29171682	    101.69471025
      5.96666670	    -25.55868830	      1.70067828	     -4.61247070	      0.51550862	      0.77929348	     -0.00078967	     70.49417338	     -7.55644301	     -2.74356240	     66.76808989	      1.16532300	     25.51546709	     -4.52520628	     -7.49999987	     70.27041950	    -10.20860858	     -1.10620680	     66.90541605	      1.16771980	     26.11042578	     -7.47615403	     -7.49999987	    -17.18935785	     -2.07778365	     10.07802882	     70.15175800	     -7.35642613	     74.21288665	    123.23266506	     84.41231626	     63.49489288	      8.03834374	     63.44983071	    117.80168601	    101.77477687
      5.98333330	    -24.64536781	      1.69849036	     -4.62362577	      0.51526124	      0.79177482	     -0.00046170	     68.03512138	     -7.54821330	     -3.01103232	     64.48730188	      1.12551574	     24.76461403	     -4.66002003	     -7.49999987	     67.68145944	     -9.97636682	     -1.36567587	     64.46076824	      1.12505264	     25.21028903	     -7.63768955	     -7.49999987	    -17.48426717	     -2.19923073	      9.74412736	     70.22065741	     -7.24999810	     72.73517035	    122.81571537	     84.80491180	     63.50192858	      7.99120443	     62.97113940	    117.55520409	    101.80204152
      6.00000000	    -23.92890378	      1.69730855	     -4.63855356	      0.51532679	      0.80425341	     -0.00078687	     65.66312772	     -7.54625097	     -3.37723702	     61.93755465	      1.08101426	     23.87981587	     -4.45016144	     -7.49999987	     65.21903753	     -9.72025149	     -1.59520244	     61.78498866	      1.07835148	     24.23054604	     -7.52105499	     -7.49999987	    -17.05109266	     -2.37934093	      9.21207907	     69.47824692	     -6.41785703	     71.50074025	    122.21394743	     85.29531506	     64.13735836	      7.86692343	     62.51933218	    117.06856611	    101.79040500
      6.01666670	    -23.30720551	      1.63631709	     -4.60633376	      0.51669417	      0.81618445	      0.00000934	     63.34462532	     -7.52191725	     -3.81551559	     59.35419174	      1.03592607	     22.95914138	     -4.32818531	     -7.49999987	     62.81293584	     -9.50705231	     -1.79519169	     59.02070629	      1.03010565	     23.21344145	     -7.39321051	     -7.49999987	    -16.84546052	     -2.48427430	      8.62800961	     68.99692904	     -6.19503250	     70.43115130	    121.28922444	     85.59559709	     64.78452349	      8.03509251	     62.60925166	    116.29312049	    101.75749464
      6.03333330	    -22.73527435	      1.65344861	     -4.60042798	      0.51646343	      0.81993303	     -0.00070231	     61.53710797	     -7.53625793	     -4.15283104	     57.37329595	      1.00135292	     22.18863122	     -4.06816371	     -7.49999987	     60.86381737	     -9.31897972	     -2.04070802	     56.81932276	      0.99168426	     22.30449846	     -7.23770545	     -7.49999987	    -16.33918238	     -2.76680929	      8.27018105	     68.63592460	     -5.66097220	     68.01730627	    121.60637976	     92.80979602	     65.18880234	      8.09403094	     62.25950667	    116.86428966	    102.10381193
      6.05000000	    -22.03485234	      1.63990687	     -4.63734826	      0.51710894	      0.82920049	     -0.00011563	     59.62116739	     -7.51523073	     -4.54548405	     55.45278635	      0.96783370	     21.49928312	     -3.83854702	     -7.49999987	     58.80317479	     -9.12947453	     -2.18408654	     54.69334019	      0.95457887	     21.45934275	     -7.40134010	     -7.49999987	    -15.39141974	     -2.81754719	      8.01638353	     67.26556927	     -4.99162418	     66.01949827	    121.31320945	     92.76565790	     63.90995754	      7.18903372	     61.53062401	    118.04145173	    101.92658910
      6.06666670	    -21.55160512	      1.67138743	     -4.63614473	      0.51696355	      0.83862108	     -0.00111397	     58.12584982	     -7.53253892	     -4.81866955	     53.67336722	      0.93677698	     20.69311852	     -3.66800378	     -7.49999987	     57.22420923	     -8.94948630	     -2.36758428	     52.80185548	      0.92156623	     20.64498189	     -7.32174600	     -7.49999987	    -14.83234940	     -2.83513817	      7.37660740	     67.27761666	     -4.72479811	     65.29919646	    121.12586341	     92.71366963	     64.55189125	      7.19736283	     60.79820553	    117.70935776	    101.78256464
      6.08333330	    -20.55343998	      1.71193758	     -4.64682972	      0.52461502	      0.85177025	     -0.00236076	     55.70214230	     -7.61039537	     -5.26027194	     51.39918520	      0.89708501	     19.77963546	     -3.61923161	     -7.49999987	     54.69568688	     -8.62601601	     -2.49006707	     50.38017801	      0.87929998	     19.33042113	     -7.87919319	     -7.49999987	    -14.95986616	     -2.82850208	      6.84123250	     67.10497932	     -4.40414247	     64.01854671	    120.96724579	     90.87437216	     64.13547610	      6.72141086	     60.98634652	    117.92310073	     98.40362304
      6.10000000	    -19.52612750	      1.75974474	     -4.75502904	      0.53262210	      0.86550243	     -0.00398723	     52.78031591	     -7.61513647	     -5.66680917	     48.47942134	      0.84612552	     18.68633119	     -3.32923910	     -7.49999987	     51.72058685	     -8.21201256	     -2.59378455	     47.46169650	      0.82836287	     17.94822134	     -8.02959146	     -7.49999987	    -14.47117787	     -2.85258957	      6.65863882	     65.26485196	     -4.72297103	     63.64304834	    121.03677917	     91.08287677	     61.91747668	      6.62641025	     61.24933899	    118.39803229	     98.82756411
      6.11666670	    -18.51015292	      1.80040034	     -4.89120614	      0.53992658	      0.87277053	     -0.00530733	     49.77277828	     -7.62284941	     -6.04780765	     45.56533879	      0.79526519	     17.67810510	     -3.02071061	     -7.49999987	     48.65775871	     -7.83882688	     -2.77274041	     44.50301053	      0.77672406	     16.72951873	     -8.10688695	     -7.49999987	    -13.93646255	     -2.81221118	      6.33330489	     63.51248579	     -4.07029568	     62.67015252	    121.98144536	     90.19442136	     60.15051929	      6.30102903	     61.12167362	    119.99818159	     97.21341961
      6.13333330	    -17.56571395	      1.90928550	     -5.06937581	      0.54733766	      0.87830813	     -0.00692483	     46.93037720	     -7.63583681	     -6.26462527	     42.80132689	      0.74702408	     16.78610568	     -2.75329043	     -7.49999987	     45.66006877	     -7.43956882	     -3.05736966	     41.63155938	      0.72660778	     15.90907993	     -7.85140121	     -7.49999987	    -12.82539232	     -2.71944556	      6.09137678	     61.55955083	     -3.55444131	     61.23586104	    122.02849712	     95.39681764	     57.02087870	      5.66358834	     60.35325838	    121.34355146	    104.02973361
